inDegrees=no
num_controls=7
num_derivatives=13
num_iterations=114
num_multipliers=7
num_parameters=0
num_slacks=7
num_states=26
objective=4.964560
objective_accelerations=0.545836
objective_balance=0.021937
objective_effort=0.150338
objective_height=4.195505
objective_ligament=0.050944
solver_duration=1252.553793
status=Solve_Succeeded
success=true
DataType=double
version=3
OpenSimVersion=4.4-2022-07-23-0e9fedc
endheader
time	/jointset/ground_pelvis/pelvis_tilt/value	/jointset/ground_pelvis/pelvis_tx/value	/jointset/ground_pelvis/pelvis_ty/value	/jointset/hip_l/hip_flexion_l/value	/jointset/hip_l/hip_adduction_l/value	/jointset/hip_l/hip_rotation_l/value	/jointset/back/lumbar_extension/value	/jointset/patellofemoral_l/patellar_flexion_l/value	/jointset/knee_l/knee_flexion_l/value	/jointset/knee_l/knee_adduction_l/value	/jointset/knee_l/knee_rotation_l/value	/jointset/ankle_l/ankle_angle_l/value	/jointset/subtalar_l/subtalar_angle_l/value	/jointset/ground_pelvis/pelvis_tilt/speed	/jointset/ground_pelvis/pelvis_tx/speed	/jointset/ground_pelvis/pelvis_ty/speed	/jointset/hip_l/hip_flexion_l/speed	/jointset/hip_l/hip_adduction_l/speed	/jointset/hip_l/hip_rotation_l/speed	/jointset/back/lumbar_extension/speed	/jointset/patellofemoral_l/patellar_flexion_l/speed	/jointset/knee_l/knee_flexion_l/speed	/jointset/knee_l/knee_adduction_l/speed	/jointset/knee_l/knee_rotation_l/speed	/jointset/ankle_l/ankle_angle_l/speed	/jointset/subtalar_l/subtalar_angle_l/speed	/forceset/tau_hip_flexion_l	/forceset/tau_hip_adduction_l	/forceset/tau_hip_rotation_l	/forceset/tau_knee_flexion_l	/forceset/tau_ankle_angle_l	/forceset/tau_subtalar_angle_l	/forceset/tau_lumbar_extension	lambda_cid13_p0	lambda_cid13_p1	lambda_cid13_p2	lambda_cid13_p3	lambda_cid13_p4	lambda_cid13_p5	lambda_cid14_p0	/jointset/ground_pelvis/pelvis_tilt/accel	/jointset/ground_pelvis/pelvis_tx/accel	/jointset/ground_pelvis/pelvis_ty/accel	/jointset/hip_l/hip_flexion_l/accel	/jointset/hip_l/hip_adduction_l/accel	/jointset/hip_l/hip_rotation_l/accel	/jointset/back/lumbar_extension/accel	/jointset/patellofemoral_l/patellar_flexion_l/accel	/jointset/knee_l/knee_flexion_l/accel	/jointset/knee_l/knee_adduction_l/accel	/jointset/knee_l/knee_rotation_l/accel	/jointset/ankle_l/ankle_angle_l/accel	/jointset/subtalar_l/subtalar_angle_l/accel	gamma_cid13_p0	gamma_cid13_p1	gamma_cid13_p2	gamma_cid13_p3	gamma_cid13_p4	gamma_cid13_p5	gamma_cid14_p0
1	-0.3851981132786929	0.02555249434448285	0.6614889701217487	1.441028932534452	-0.3635551488242964	0.1195574302418406	-0.4363255155010135	1.332044666641909	1.33204466664172	-0.01044921406647165	-0.1745086957350398	0.4346819682728315	0.2215069692192477	-0.1326092380150279	0.001173001553040387	0.02780887872229068	0.03336208528715342	0.001679112416537114	-0.05339181931954912	-5.03949547479756e-05	-0.1473519910352622	-0.147351991035269	-0.002564033697120424	-9.277699487009248e-06	-0.06063571122425208	-0.03136273371514978	-0.2028017269600867	0.03852076905657585	-0.001717931078910212	-0.2594426755963423	-0.05763463756131957	0.01777681885738093	0.1864188390933429	-47.79194906611846	2.724112555826757	-3.087240353394171	3.797136464132716	-524.5708852545276	-74.04354173092636	-0.02479534954838563	1.435824188985734	0.2633197167222815	1.562386604358805	-5.553268435834737	-0.1451665195097359	-1.506106016138182	-0.03349429873557969	-4.832323606374071	-4.832323606373921	-0.5424854016531533	-0.02594873104182386	-1.126768119586835	-0.8559822711036827	-6.918923799671821e-09	-8.722389355275647e-08	6.509055181466755e-08	1.061804965699842e-09	-7.58968111243933e-09	-7.410736741655927e-08	-1.312506933116005e-08
1.01	-0.3864532473358539	0.02557730666710867	0.6618449510582649	1.441086211363222	-0.3635449693517779	0.1189483072919978	-0.4363267414715967	1.330329883020964	1.330329883021143	-0.01050098458941448	-0.1745088262702596	0.4340192293852209	0.2211516371609344	-0.1184185921867333	0.003786508398866109	0.04337843389507486	-0.02188457709678109	0.0003620722415759591	-0.06842640012326003	-0.000193974896475862	-0.1956048950940497	-0.1956048950940671	-0.007788240260298204	-1.583176372326612e-05	-0.07193179613299977	-0.03969912186088748	-0.2032439702143359	0.03869550318654243	-0.001763266046000995	-0.2582979406914761	-0.05823304870525604	0.01777585770446201	0.186624720571939	-47.9611601990222	2.714328340839329	-3.040185792172554	3.883131244069391	-524.3489032262644	-73.85095075741427	-0.0248134095631377	1.410532076296191	0.2599229057812604	1.55290611985918	-5.507103916286784	-0.1241890185967408	-1.50119587970262	-0.004666254720738297	-4.821794698394657	-4.821794698395516	-0.5121285657838905	0.01215030433789892	-1.13399436826893	-0.821776369519657	-8.750837174487207e-09	-1.068725067363751e-07	8.058054270071423e-08	-3.702904057056678e-10	-1.319847394648431e-08	-8.327513085610264e-08	-1.695231903335125e-08
1.02	-0.3875665054754855	0.02562816540564735	0.6623563607757315	1.440591675813181	-0.3635478035313734	0.1181890261806747	-0.4363293785209312	1.328132566180878	1.328132566181187	-0.01060494523439373	-0.1745089905363992	0.4332429365101558	0.2207130793645201	-0.1042340544964276	0.006382284735615176	0.05889463491279066	-0.07700079054510588	-0.0009236180176604959	-0.08342345161557943	-0.0003326113512887694	-0.2438586348634037	-0.2438586348634315	-0.01300205810884674	-1.602388984700594e-05	-0.08334650871177712	-0.0480078813350594	-0.2036862134655872	0.03887023731676013	-0.001808601012418262	-0.2571532057865855	-0.05883145984960018	0.01777489655170568	0.1868306020535182	-48.13654751140279	2.705401912493376	-2.993012689361006	3.970054004717664	-524.2562611746158	-73.6531392472656	-0.02483053542403245	1.434602561387905	0.2597736149070257	1.551715773345131	-5.527178648712907	-0.1388965363648519	-1.49860015385999	-0.03250560135398182	-4.832490748487357	-4.832490748487162	-0.5404076587272726	-0.0246763434194587	-1.150493653592634	-0.8504565367905517	-1.182373590996734e-08	-1.285285770482929e-07	9.631357548131355e-08	-7.46670976853429e-11	-1.986570670037846e-08	-9.180553750858883e-08	-2.121201971592578e-08
1.03	-0.3885380381899138	0.02570502453734311	0.6630226320545619	1.439546592793449	-0.3635633377381934	0.117280007485534	-0.436332307488732	1.325452733179426	1.32545273317961	-0.01076100963239089	-0.1745090816422917	0.4323520666299788	0.2201916912814753	-0.09008313335689089	0.008999694634566558	0.07434733683731769	-0.1319972447969612	-0.002179827145297244	-0.0983727102360266	-0.0001445213575748342	-0.2921062668379989	-0.292106266837994	-0.01821092059024599	-1.860038479017267e-06	-0.09483169135312554	-0.05625665856879265	-0.2045487375654427	0.03914287382950909	-0.001867288359827212	-0.2555096100666044	-0.05982900498199298	0.01780013863851727	0.1874614181983456	-48.43279853220935	2.681962704471602	-2.915774904233622	4.0319577310732	-524.2248010726074	-73.41806697156869	-0.02485093228320059	1.403739921225392	0.2642476820503284	1.54019945045239	-5.483094254771667	-0.1184857406126674	-1.491978107201364	0.06076554120828336	-4.820639512484785	-4.820639512480283	-0.5111628567610417	0.01452683493246401	-1.148173377054517	-0.810116306704907	-1.490929776137263e-08	-1.502051316166218e-07	1.12049088281245e-07	2.385859927781126e-10	-2.654373986161802e-08	-1.003294405203908e-07	-2.547613316360627e-08
1.04	-0.3893683810867614	0.0258083623689591	0.6638430607623241	1.437952102142783	-0.3635913345642665	0.1162217183260651	-0.4363300957140991	1.32229047584012	1.322290475840279	-0.0109691701179566	-0.1745090182926125	0.4313462163618462	0.2195882098280815	-0.07599609097783147	0.01167802471966164	0.0897261206995725	-0.1868823167028857	-0.003416141858953729	-0.113277544499032	0.0006955382952258723	-0.3403435024341579	-0.3403435024341212	-0.02342127562824155	1.486723359299955e-05	-0.1063425863003957	-0.06442655540411872	-0.2054112616663114	0.03941551034237608	-0.001925975707520016	-0.2538660143465971	-0.06082655011417824	0.01782538072564709	0.1880922343421743	-48.73542109543723	2.659500608312219	-2.838534834267142	4.095128849066436	-524.3245439821383	-73.17822074297398	-0.02487001852616832	1.421826809292342	0.2719576521359011	1.536932160890697	-5.504902179526769	-0.1349176535688753	-1.489715282371727	0.09788833047289808	-4.830411472800128	-4.830411472800109	-0.5407061700465176	-0.02416365927875144	-1.155636114776763	-0.8346804571090948	-1.779215667629096e-08	-1.739359540756004e-07	1.28011634191657e-07	-3.036224644648755e-10	-3.262501008085076e-08	-1.105710554085647e-07	-2.993752203662872e-08
